<?xml version="1.0" encoding="utf-8"?>
<!-- Generator: Adobe Illustrator 25.2.3, SVG Export Plug-In . SVG Version: 6.00 Build 0)  -->
<svg version="1.1" xmlns="http://www.w3.org/2000/svg" xmlns:xlink="http://www.w3.org/1999/xlink" x="0px" y="0px"
	 viewBox="0 0 145 80" style="enable-background:new 0 0 145 80;" xml:space="preserve">
<style type="text/css">
	.st0{clip-path:url(#SVGID_2_);fill-rule:evenodd;clip-rule:evenodd;fill:#FFFFFF;}
	.st1{clip-path:url(#SVGID_2_);fill-rule:evenodd;clip-rule:evenodd;fill:#E63027;}
	.st2{display:none;}
	.st3{display:inline;}
	.st4{fill-rule:evenodd;clip-rule:evenodd;fill:#134395;}
	.st5{fill-rule:evenodd;clip-rule:evenodd;fill:#E63027;}
	.st6{fill-rule:evenodd;clip-rule:evenodd;fill:#1D1D1B;}
</style>
<g id="Layer_1">
	<g>
		<defs>
			<rect id="SVGID_1_" width="145" height="79.8"/>
		</defs>
		<clipPath id="SVGID_2_">
			<use xlink:href="#SVGID_1_"  style="overflow:visible;"/>
		</clipPath>
		<path class="st0" d="M95.2,14.6c-1.2,1-1.9,3.2-1.8,5.8c0.2,3.5,2.1,6.4,4.2,6.4h16.9c1.4-2,2.3-5.3,1.8-8.9
			c-0.6-4.4-2.9-8.2-5.4-9.9h-9.4c2.5,1.8,4.8,5.6,5.4,9.9c0.5,3.4-0.2,6.4-1.4,8.4c-1.4-1-2.5-3.2-2.7-5.9
			c-0.2-2.6,0.6-4.8,1.8-5.8H95.2z M29.4,14.6c-1.2,1-1.9,3.2-1.8,5.8c0.2,3.5,2.1,6.4,4.2,6.4h16.9c1.4-2,2.3-5.3,1.8-8.9
			c-0.6-4.4-2.9-8.2-5.4-9.9h-9.4c2.5,1.8,4.8,5.6,5.4,9.9c0.5,3.4-0.2,6.4-1.4,8.4c-1.4-1-2.5-3.2-2.7-5.9
			c-0.2-2.6,0.6-4.8,1.8-5.8H29.4z M57.1,0c-3.1,2.5-5.1,7.9-4.7,14.1c0.4,5.1,2.3,9.7,4.9,12.5h9.4c-2.6-2.8-4.6-7.4-4.9-12.5
			C61.3,7.9,63.4,2.5,66.5,0H57.1z M84.7,8c2.5,1.8,4.8,5.6,5.4,10c0.5,3.6-0.2,6.8-1.6,8.8l-19.1-0.1c-2.6-2.8-4.6-7.6-4.9-12.8
			C64,7.7,66,2.5,69.1,0h9.4c-3.1,2.5-5.1,7.6-4.7,13.9c0.4,5.1,2.3,9.7,4.9,12.5c1.4-2,2.5-4.9,2-8.5c-0.6-4.4-2.9-8.2-5.4-10H84.7
			z"/>
		<path class="st1" d="M38.5,51.6c-0.3,0.6-0.8,0.8-1.4,1c-1-0.3-2.1,0.4-2.9,0.2c0.6-0.4,1.1-0.4,1.8-0.6
			C36.9,52.4,37.5,51.5,38.5,51.6 M57.8,46.9c-0.3,0.3-0.5,0.8-0.9,0.9c0-0.3-0.7-0.9,0-1C57.2,46.8,57.6,46.9,57.8,46.9 M67.9,45.5
			l-1.4,0C66.9,45.2,67.6,45.2,67.9,45.5 M126.6,42.5c0,0.2-0.1,0.2-0.3,0.3c-0.3,0-0.4-0.1-0.6-0.3c-0.1-0.4,0.2-0.6,0.5-0.8
			C126.6,41.8,126.6,42.2,126.6,42.5 M123.8,41.4c0.3-0.1,0.7,0.4,1.2,0.3c0.4,0.2,0.3,0.6,0.2,0.8c-0.5,0.2-1,0.1-1.3,0
			c-0.9-0.1-1.7,0-2.6-0.2c-0.1,0.2-0.3,0.4-0.5,0.5c-0.4,0-0.6-0.4-0.5-0.7c0-0.1,0-0.3,0.2-0.3c0.7,0.5,1.3-0.4,2-0.3l0.5-0.3
			C123.1,41.4,123.5,41.5,123.8,41.4 M83.4,40.9c-0.2,0.3-0.7,0.1-1.1,0.1C82.5,41,83,40.8,83.4,40.9 M123.5,40.9h-0.4v-0.1
			C123.3,40.9,123.4,40.8,123.5,40.9 M86.9,40.9c-0.5,0.1-1.1,0.2-1.3-0.3C85.9,40,86.6,40.6,86.9,40.9 M93.1,40.2l-0.1,0L93.1,40.2
			L93.1,40.2z M92.7,40.2c-0.6,0.6-1.4,0.2-2.2,0.2c0.3-0.6,0.9-0.1,1.3-0.4L92.7,40.2z M96,40.2l1.6-0.2
			C97.3,40.1,96.6,40.4,96,40.2 M97.9,39.9l0.3,0L97.9,39.9z M104.2,39.9c-0.2,0.2-0.7,0.5-1,0.7c-1.4-0.1-2.7-0.6-4.2-0.7
			c-0.2-0.1-0.4-0.1-0.6-0.1c0.9-0.6,1.9,0.3,2.9,0.2L104.2,39.9z M131.9,38.6c-0.1,0.3,0.2,0.9-0.3,0.9c-0.4-0.1-1.1,0-1.2-0.6
			c0.2-0.2,0-0.8,0.5-0.7C131.3,38.4,131.7,38.2,131.9,38.6 M143,37.2c0.7,0.4,1.7,0.7,2,1.7c-1.1,0.1-2.4,0.4-3.3-0.5
			c-0.4,0-0.8-0.3-1.3-0.1c-0.4,0-0.6-0.4-0.8-0.6c0-0.2,0.2-0.6,0.5-0.6C141,36.9,142,37.1,143,37.2 M139.1,36.9
			c0.1,0.3,0,0.6-0.2,0.9c-1.1-0.2-2.1,0.3-3-0.5c-0.2-0.5,0.2-0.8,0.5-1.1C137.4,36.2,138.4,36.2,139.1,36.9 M114.7,36.1
			c0.3,0.2,0.8,0.2,0.9,0.6c-0.6,0.3-1.4-0.1-2.1-0.2c-0.4-0.1-0.9-0.2-0.5-0.7C113.7,35.5,114.1,36.2,114.7,36.1 M95,32.5
			c0.8-1.2,1.6,0.5,2.6,0.2c0.9,0.4,2,0.1,2.9,0c0.4,0.4,0.6-0.2,0.9-0.1c0.5,0.4,1.2,0.2,1.7,0.4c0.6,0,1.2-0.8,1.8-0.2
			c0.3-0.2,0.5,0.2,0.8,0.2c0.8,0.2,1.5-0.2,2.2,0.1c1.6,0,3.5,0,5,0.6c1.2,0.1,2.9-0.4,3.8,0.7c0.6,0.1,1.4-0.4,2.1-0.6
			c0.3-0.2,0.8,0,1.1,0.3l0.2,0.1l4.9,0c1.1,0.5,2,0.7,3.3,0.6c0.6,0.5,1.4,0,2.2,0.2c0.2,0.2,0.6-0.2,0.8,0.2
			c0.7-0.3,1.1,0.6,1.9,0.2c0.6,0.9,2.1-0.3,1.9,1.2c-0.2,0.3-0.7,0.5-0.9,0.1c-0.8,0.5-1.6-0.7-2.4-0.2c-0.5-0.6-1.3,0.3-1.6-0.5
			c-0.3,0.3-0.4-0.1-0.7,0.1c-0.7,0-1.7,0.1-2.5-0.2c-1.1-0.3-2.3-1.3-3.6-0.4c-0.7-0.1-1.8-0.6-2.3,0.1c0.2,0.4,0.6,0,1,0.4
			c1.1-0.2,2.3,0.5,3.3,1.1c1.1,0.3,2.7,0.2,3.9,0.3c0.6-0.1,0.6,0.6,1.1,0.9c0.1,0.2-0.2,0.3-0.3,0.5c-1.5-0.5-3.2-0.4-4.7-0.5
			c-0.4,0-0.8-0.2-1.1,0.2c0.2,0.4,0.3,0.9,0.7,1.1c0.2-0.2,0.6-0.5,0.9-0.2c0,0.3,0.2,0.5,0,0.8c-0.2,0.2-0.5,0.3-0.7,0l-0.3-0.6
			c-0.4,1.1-1.4,0.6-2.2,0.6c-0.4-0.2-0.2-0.7-0.3-1.1l0.7-0.6c-1-0.4-1.9-0.2-2.8-0.2c0.4,0.6,2-0.1,1.3,1.2
			c-0.6,0.3-1.7-0.1-2.3,0.3c-0.4,0-0.5-0.2-0.5-0.5c0-0.3,0.5-0.6,0.5-0.9c0.3,0,0.6,0.2,0.8-0.1c-0.9-0.6-2-0.7-3-0.7
			c-0.2,0.1-0.5,0.2-0.5,0.5c0.2,0.5,1.3,0.1,1.6,0.9c-1.1,1-2.8,0.4-4.1,0.4c-0.4-0.2-1.1,0.8-1.4,0c-0.3-0.3,0-0.6,0.1-0.8
			c0.2-0.3,0.5,0,0.8,0l0.2,0.4c0.1-0.3,0.5-0.5,0.5-0.9c0-0.1-0.1-0.4-0.3-0.3c-0.9,0.6-1.5-0.2-2.4-0.2c-0.9,0.1-2.2-0.2-2.9,0.5
			c0.2,0.6,0.9,0,1.4,0c0.5,0.3,1.6-0.4,1.6,0.7c-0.4,0.4-0.9,0.4-1.4,0.4c-0.7,0-1.3,0.6-2.1,0.4c0.8,1.1,2.6,0.1,3.8,0.7
			c1-0.1,1.7,0.1,2.3,0.9c0.5-0.2,0.6-0.8,1.1-0.9c0.8-0.3,1.2,1.5,2.2,0.6c0.9-0.1,2-0.4,2.8,0.3c0,0.2-0.1,0.4-0.3,0.4
			c-1,0.3-1.9-0.6-2.7,0.2c-0.7,0.4-1.5-0.2-2.2,0c-0.5,0.3-0.9-0.6-1.3,0c-1.7,0.2-3.3,0.2-5-0.2c-0.6,0.1-1,1.1-1.7,0.7l-1.1-0.6
			c-0.9,0.4-2.2-0.1-3,0.6l-1.3-0.3c-2.2-0.1-4.2,0.1-6.1,0c-1.3-0.1-2.8,0.4-4.2,0.3c-1.8,0-3.3,1-5.1,0.9
			c-1.1,0.7-2.7,0.9-3.8,0.2c-1.1,0.2-2.2,1.8-3.3,0.5c-0.4-0.2-0.7-0.1-1.1,0c-1.4,0.6-2.7,1.2-4.2,1.6c-1.6,1.1-3.2-0.9-4.8-0.4
			c-0.3-0.1-0.6-0.3-0.9,0c0.3,0.1,0.7,0.5,0.4,0.9c-1,0.8-2.2,0.5-3.2,0.9c-1.4,0.4-3.2,0-3.9,1.6c-1.6,0.5-3.8,1.5-5-0.1
			c-0.4-0.3-0.9-0.6-0.9-1.2c-0.4,1.1-1.6,1.7-2.3,2.6c-1.2,0.3-2.5-0.3-3.5,0.7c-0.6-0.1-1.4,0.1-1.9,0.7c-1.5,0.6-3.2,1.4-4.9,1
			c-0.4,0-0.5,0.4-0.9,0.5c-2,0.9-3.9,1.7-6.2,1.9c-0.7,0.4-1.2,1-2,1c-0.5-0.3-0.4-0.8-0.6-1.2c0.1-0.5,0.1-1.1,0.6-1.5
			c-0.6,0.1-1.4,0.1-2,0.5c0.7,0.3,0.7,1.1,0.8,1.8c-0.1,1.7-1.7,0.2-2.7,0.5c-0.3,0.3-0.1,0.8-0.6,1c-1.3-0.3-2.3,1.2-3.6,0.7
			c-0.3-0.4-0.6-0.8-1-1.1c0,0.8-0.2,1.9-1,2.2c-0.7,0.4-1.7,0-2.1,0.8c-1.1-0.5-1.6,0.9-2.5,0.9c-1.3,0.7-2.5,1.7-4,1.9
			c-0.6,0.4-1.1,0.8-1.7,0.8c-1-1.1-3.2,0.5-3.3-1.7c0.1-0.2,0-0.5-0.1-0.7c-1.2,0.5-2.3,0.7-3.7,0.6c-0.8-0.5-1.4,0.7-2.2,0.3
			c-0.1-0.2-0.5-0.5-0.3-0.8c0.2-0.9,2,0.2,1.4-1c-0.8-0.2-1.9,0.6-2.3-0.6c-1.1-1.4-0.9-3.7-2.6-4.5c-0.3-0.6,0.2-1.1,0.4-1.7
			c0.9-0.1,1.4-0.9,2-1.3c0.5,0,0.8-0.4,1.2-0.4c0.5-0.4,1-1.1,1.7-0.9c0.2-0.4,0.8-0.1,1.1-0.3c0.9-0.2,1.7-0.9,2.4-1.3
			c0.6-0.4,1.4,0,1.7-0.8c0.2-0.3,0.6-0.7,1.1-0.8c1.1,0.3,2.1-0.4,3.1-0.7c0.3,0.1,0.8-0.1,1.1-0.4c0.8-0.5,1.4-1.2,2.3-1.1
			c1-0.1,1.8,1.1,2.7-0.1l1-1.1c0.7-0.2,1.6-0.3,2.2-0.2c0.6-0.1,1.2-0.6,1.9-0.4c0.7-0.4,1.5-1.3,2.4-1.2l1.2,1.1
			c0.8,0,1.5,0,1.9,0.8c0.1-0.1,0.4,0,0.5-0.1c-0.2-0.5-1-0.8-0.7-1.4c0.2-0.4,0.4-0.9,0.8-1.1c0.6-0.1,1.1,0.2,1.5,0.4
			c0.9-0.5,2-0.6,2.6-1.6c0.5,0.2,0.6-0.5,1-0.1c1.1,0.2,1.8-1.3,2.9-0.9c0.5,0,1.2,0.2,1.7-0.3c1.9-0.3,3.7,0.1,5.8,0
			c0.3-0.3,0.6-0.1,1-0.3c0.7-0.6,1.5-1.1,2.4-0.9c1.1-0.4,2.3-1.9,3.5-0.9c0.9-0.1,1.7-0.6,2.6-0.6c1.3-0.3,2.4-0.1,3.8-0.1
			c0.6-0.2,0.8-0.9,1.5-0.6c0.3,0.3,0.7,0.9,1.2,0.4c0.8-0.5,1.7-1.7,2.8-1.1c0.7,0.1,1.6-0.5,2.2,0c1,0.1,1.8-1.1,2.8-1
			c0.9-0.3,2.1,0.2,3-0.4c0.4-0.4,0.7,0.2,1.2,0.1c1.2-0.9,2.4,0.1,3.7-0.2c0.6,0.1,0.8,1.1,1.6,0.5c0.8-0.4,1.7-0.5,2.3-0.9
			c0.8,0.1,1.9,0.8,2.8,0c0.5-0.1,1,0,1.5,0c0.5,0.6,1-0.1,1.5-0.2c0.7,0.1,1.2-0.3,1.8-0.3c0.4-0.4,0.6-0.1,1-0.5
			C92.8,32.1,93.7,32.8,95,32.5"/>
		<path class="st0" d="M74,79.7v-5.2h1.5v-0.8H74v-0.3c0-0.9,0.2-1.8,1.2-1.8c0.3,0,0.5,0.1,0.7,0.1l0.1-0.9
			c-0.2-0.1-0.6-0.2-0.9-0.2c-0.5,0-1.1,0.2-1.5,0.6c-0.5,0.5-0.7,1.3-0.7,2.1v0.3h-0.9v0.8h0.9v5.2H74z"/>
		<path class="st0" d="M78.9,73.5c-1.7,0-3,1.2-3,3.2c0,1.9,1.3,3.1,2.9,3.1c1.5,0,3-1,3-3.2C81.8,74.8,80.6,73.5,78.9,73.5
			 M78.9,74.3c1.3,0,1.8,1.3,1.8,2.3c0,1.4-0.8,2.4-1.8,2.4c-1.1,0-1.8-1-1.8-2.3C77,75.5,77.6,74.3,78.9,74.3"/>
		<path class="st0" d="M83.2,79.7h1.1v-3.2c0-0.2,0-0.4,0-0.5c0.1-0.8,0.7-1.4,1.5-1.4c0.1,0,0.3,0,0.4,0v-1c-0.1,0-0.2,0-0.3,0
			c-0.7,0-1.4,0.5-1.7,1.3h-0.1l0-1.2h-1c0,0.6,0,1.2,0,1.9V79.7z"/>
		<path class="st0" d="M90.2,72.5v1.1h-0.9v0.8h0.9v3.3c0,0.7,0.1,1.3,0.4,1.6c0.3,0.3,0.7,0.5,1.2,0.5c0.4,0,0.8-0.1,1-0.2l0-0.8
			c-0.2,0.1-0.3,0.1-0.6,0.1c-0.6,0-0.8-0.4-0.8-1.2v-3.3h1.6v-0.8h-1.6v-1.5L90.2,72.5z"/>
		<path class="st0" d="M94.1,79.7h1.1V76c0-0.2,0-0.4,0.1-0.5c0.2-0.6,0.8-1.1,1.5-1.1c1,0,1.4,0.8,1.4,1.8v3.5h1.1v-3.6
			c0-2.1-1.3-2.6-2.1-2.6c-0.4,0-0.8,0.1-1.1,0.3c-0.3,0.2-0.6,0.5-0.8,0.8h0v-3.8h-1.1V79.7z"/>
		<path class="st0" d="M106,76.9c0-0.1,0-0.3,0-0.5c0-1.1-0.5-2.9-2.5-2.9c-1.8,0-2.8,1.4-2.8,3.3c0,1.8,1.1,3.1,3,3.1
			c1,0,1.6-0.2,2-0.4l-0.2-0.8c-0.4,0.2-0.9,0.3-1.7,0.3c-1.1,0-2.1-0.6-2.1-2.1H106z M101.7,76.1c0.1-0.8,0.6-1.8,1.7-1.8
			c1.2,0,1.5,1.1,1.5,1.8H101.7z"/>
		<path class="st0" d="M109.3,73.6l1.8,6.1h1l1-2.9c0.2-0.7,0.4-1.3,0.6-2h0c0.2,0.7,0.3,1.3,0.5,2l0.9,2.9h1l2-6.1h-1.1l-0.9,3
			c-0.2,0.7-0.4,1.4-0.5,2h0c-0.1-0.6-0.3-1.3-0.5-2l-0.9-3h-0.9l-1,3.1c-0.2,0.7-0.4,1.3-0.5,1.9h0c-0.1-0.6-0.3-1.3-0.5-1.9
			l-0.8-3.1H109.3z"/>
		<path class="st0" d="M121.7,73.5c-1.7,0-3,1.2-3,3.2c0,1.9,1.3,3.1,2.9,3.1c1.5,0,3-1,3-3.2C124.6,74.8,123.4,73.5,121.7,73.5
			 M121.7,74.3c1.3,0,1.8,1.3,1.8,2.3c0,1.4-0.8,2.4-1.8,2.4c-1.1,0-1.8-1-1.8-2.3C119.8,75.5,120.4,74.3,121.7,74.3"/>
		<path class="st0" d="M126,79.7h1.1v-3.2c0-0.2,0-0.4,0.1-0.5c0.1-0.8,0.7-1.4,1.5-1.4c0.1,0,0.3,0,0.4,0v-1c-0.1,0-0.2,0-0.3,0
			c-0.7,0-1.4,0.5-1.7,1.3h0l0-1.2h-1c0,0.6,0.1,1.2,0.1,1.9V79.7z"/>
		<rect x="130.2" y="70.8" class="st0" width="1.1" height="8.9"/>
		<path class="st0" d="M137.3,70.8v3.6h0c-0.3-0.5-0.9-0.9-1.8-0.9c-1.5,0-2.7,1.2-2.7,3.3c0,1.8,1.1,3.1,2.6,3.1
			c1,0,1.7-0.5,2.1-1.2h0l0,1.1h1c0-0.4-0.1-1-0.1-1.6v-7.3H137.3z M137.3,77.1c0,0.2,0,0.3-0.1,0.5c-0.2,0.8-0.9,1.3-1.6,1.3
			c-1.2,0-1.8-1-1.8-2.2c0-1.3,0.7-2.3,1.8-2.3c0.8,0,1.4,0.6,1.6,1.3c0,0.1,0.1,0.3,0.1,0.5V77.1z"/>
		<path class="st0" d="M86.4,64.5l0.9,2.7h1.2l-2.9-8.5h-1.3l-2.9,8.5h1.1l0.9-2.7H86.4z M83.7,63.6l0.8-2.4c0.2-0.5,0.3-1,0.4-1.5
			h0c0.1,0.5,0.3,1,0.4,1.5l0.8,2.4H83.7z"/>
		<rect x="89.7" y="58.2" class="st0" width="1.1" height="8.9"/>
		<path class="st0" d="M97.7,61.1h-1.1v3.7c0,0.2,0,0.4-0.1,0.6c-0.2,0.5-0.7,1-1.5,1c-1,0-1.4-0.8-1.4-1.9v-3.4h-1.1v3.5
			c0,2.1,1.1,2.7,2.1,2.7c1.1,0,1.7-0.6,2-1.1h0l0.1,1h1c0-0.5-0.1-1-0.1-1.7V61.1z"/>
		<path class="st0" d="M99.5,67.2h1.1v-3.7c0-0.2,0-0.4,0.1-0.5c0.2-0.6,0.7-1.1,1.4-1.1c0.8,0,1.3,0.7,1.3,1.7v3.6h1.1v-3.8
			c0-0.2,0-0.4,0.1-0.6c0.2-0.5,0.7-1,1.3-1c0.9,0,1.3,0.7,1.3,1.9v3.4h1.1v-3.6c0-2.1-1.2-2.6-2-2.6c-0.6,0-1,0.1-1.3,0.4
			c-0.3,0.2-0.5,0.5-0.7,0.8h0c-0.3-0.7-0.9-1.2-1.7-1.2c-1,0-1.6,0.5-1.9,1.1h0l0-1h-1c0,0.5,0.1,1,0.1,1.6V67.2z"/>
		<path class="st0" d="M111.1,61.1H110v6.1h1.1V61.1z M110.6,58.7c-0.4,0-0.7,0.3-0.7,0.7c0,0.4,0.3,0.7,0.7,0.7
			c0.4,0,0.7-0.3,0.7-0.7C111.2,59,111,58.7,110.6,58.7"/>
		<path class="st0" d="M112.9,67.2h1.1v-3.7c0-0.2,0-0.4,0.1-0.5c0.2-0.6,0.8-1.1,1.5-1.1c1,0,1.4,0.8,1.4,1.8v3.5h1.1v-3.6
			c0-2.1-1.3-2.6-2.1-2.6c-1,0-1.7,0.6-2,1.1h0l-0.1-1h-1c0,0.5,0,1,0,1.6V67.2z"/>
		<path class="st0" d="M121,61.1h-1.1v6.1h1.1V61.1z M120.4,58.7c-0.4,0-0.7,0.3-0.7,0.7c0,0.4,0.3,0.7,0.7,0.7
			c0.4,0,0.7-0.3,0.7-0.7C121.1,59,120.9,58.7,120.4,58.7"/>
		<path class="st0" d="M127.9,61.1h-1.1v3.7c0,0.2,0,0.4-0.1,0.6c-0.2,0.5-0.7,1-1.5,1c-1,0-1.4-0.8-1.4-1.9v-3.4h-1.1v3.5
			c0,2.1,1.1,2.7,2.1,2.7c1.1,0,1.7-0.6,2-1.1h0l0.1,1h1c0-0.5,0-1,0-1.7V61.1z"/>
		<path class="st0" d="M129.7,67.2h1.1v-3.7c0-0.2,0-0.4,0.1-0.5c0.2-0.6,0.7-1.1,1.4-1.1c0.8,0,1.3,0.7,1.3,1.7v3.6h1.1v-3.8
			c0-0.2,0-0.4,0.1-0.6c0.2-0.5,0.7-1,1.3-1c0.9,0,1.3,0.7,1.3,1.9v3.4h1.1v-3.6c0-2.1-1.2-2.6-2-2.6c-0.6,0-1,0.1-1.3,0.4
			c-0.3,0.2-0.5,0.5-0.7,0.8h0c-0.3-0.7-0.9-1.2-1.7-1.2c-1,0-1.6,0.5-1.9,1.1h0l0-1h-1c0,0.5,0,1,0,1.6V67.2z"/>
	</g>
</g>
<g id="Layer_2" class="st2">
	<g class="st3">
		<g>
			<path class="st4" d="M95.2,14.6c-1.2,1-1.9,3.2-1.8,5.8c0.2,3.5,2.1,6.4,4.2,6.4h16.9c1.4-2,2.3-5.3,1.8-8.9
				c-0.6-4.4-2.9-8.2-5.4-10h-9.4c2.5,1.8,4.8,5.6,5.4,10c0.5,3.4-0.2,6.4-1.4,8.4c-1.4-1-2.5-3.2-2.7-5.9c-0.2-2.6,0.6-4.8,1.8-5.8
				H95.2z M29.4,14.6c-1.2,1-1.9,3.2-1.8,5.8c0.2,3.5,2.1,6.4,4.2,6.4h16.9c1.4-2,2.3-5.3,1.8-8.9c-0.6-4.4-2.9-8.2-5.4-10h-9.4
				c2.5,1.8,4.8,5.6,5.4,10c0.5,3.4-0.2,6.4-1.4,8.4c-1.4-1-2.5-3.2-2.7-5.9c-0.2-2.6,0.6-4.8,1.8-5.8H29.4z M57.1,0
				c-3.1,2.5-5.1,7.9-4.7,14.1c0.4,5.1,2.3,9.7,4.9,12.5h9.4c-2.6-2.8-4.6-7.4-4.9-12.5C61.3,7.9,63.4,2.5,66.5,0H57.1z M84.7,8
				c2.5,1.8,4.8,5.6,5.4,10c0.5,3.6-0.2,6.8-1.6,8.8l-19.1-0.1c-2.6-2.8-4.6-7.6-4.9-12.8C64,7.7,66,2.5,69.1,0h9.4
				c-3.1,2.5-5.1,7.6-4.7,13.9c0.4,5.1,2.3,9.7,4.9,12.5c1.4-2,2.5-4.9,2-8.5c-0.6-4.4-2.9-8.2-5.4-10H84.7z"/>
			<path class="st5" d="M38.5,51.6c-0.3,0.6-0.8,0.8-1.4,1c-1-0.3-2.1,0.4-2.9,0.2c0.6-0.4,1.1-0.4,1.8-0.6
				C36.9,52.4,37.5,51.5,38.5,51.6z M57.8,46.9c-0.3,0.3-0.6,0.8-0.9,0.9c0-0.3-0.7-0.9,0-1C57.2,46.8,57.6,46.9,57.8,46.9z
				 M67.9,45.5l-1.4,0C66.9,45.2,67.6,45.2,67.9,45.5z M126.6,42.5c0,0.2-0.1,0.2-0.3,0.3c-0.3,0-0.4-0.1-0.6-0.3
				c-0.1-0.4,0.2-0.6,0.5-0.8C126.6,41.8,126.6,42.2,126.6,42.5z M123.8,41.4c0.3-0.1,0.7,0.4,1.2,0.3c0.4,0.2,0.3,0.6,0.2,0.8
				c-0.5,0.2-1,0.1-1.3,0c-0.9-0.1-1.7,0-2.6-0.2c-0.1,0.2-0.3,0.4-0.5,0.5c-0.4,0-0.6-0.4-0.5-0.7c0-0.1,0-0.3,0.2-0.3
				c0.7,0.5,1.3-0.4,2-0.3l0.6-0.3C123.1,41.4,123.5,41.5,123.8,41.4z M83.4,40.9c-0.2,0.3-0.7,0.1-1.1,0.1
				C82.5,41,83,40.8,83.4,40.9z M123.5,40.9h-0.4v-0.1C123.3,40.9,123.4,40.8,123.5,40.9z M86.9,40.9c-0.5,0.1-1.1,0.2-1.3-0.3
				C85.9,40,86.6,40.6,86.9,40.9z M93.1,40.2l-0.1,0L93.1,40.2L93.1,40.2z M92.7,40.2c-0.6,0.6-1.4,0.2-2.2,0.2
				c0.3-0.6,0.9-0.1,1.3-0.4L92.7,40.2z M96,40.2l1.6-0.2C97.3,40.1,96.6,40.4,96,40.2z M97.9,40l0.3,0L97.9,40z M104.2,40
				c-0.2,0.2-0.7,0.5-1,0.7c-1.4-0.1-2.7-0.6-4.2-0.7c-0.2-0.1-0.4-0.1-0.6-0.1c0.9-0.6,1.9,0.3,2.9,0.2L104.2,40z M131.9,38.6
				c-0.1,0.3,0.2,0.9-0.3,0.9c-0.4-0.1-1.1,0-1.2-0.5c0.2-0.2,0-0.8,0.5-0.7C131.3,38.4,131.7,38.2,131.9,38.6z M143,37.2
				c0.7,0.4,1.7,0.7,2,1.7c-1.1,0.1-2.4,0.4-3.3-0.5c-0.4,0-0.8-0.3-1.3-0.1c-0.4,0-0.6-0.4-0.8-0.6c0-0.2,0.2-0.6,0.5-0.6
				C141,36.9,142,37.1,143,37.2z M139.1,36.9c0.1,0.3,0,0.6-0.2,0.9c-1.1-0.2-2.1,0.3-3-0.5c-0.2-0.5,0.2-0.8,0.5-1.1
				C137.4,36.2,138.4,36.2,139.1,36.9z M114.7,36.1c0.3,0.2,0.8,0.2,0.9,0.6c-0.6,0.3-1.4-0.1-2.1-0.2c-0.4-0.1-0.9-0.2-0.5-0.7
				C113.7,35.5,114.1,36.2,114.7,36.1z M95,32.5c0.8-1.2,1.6,0.5,2.6,0.2c0.9,0.4,2,0.1,2.9,0c0.4,0.4,0.6-0.2,0.9-0.1
				c0.5,0.4,1.2,0.2,1.7,0.4c0.6,0,1.2-0.8,1.8-0.2c0.3-0.2,0.5,0.2,0.8,0.2c0.8,0.2,1.5-0.2,2.2,0.1c1.6,0,3.5,0,5,0.6
				c1.2,0.1,2.9-0.4,3.8,0.7c0.6,0.1,1.4-0.4,2.1-0.6c0.3-0.2,0.8,0,1.1,0.3l0.2,0.1l4.9,0c1.1,0.5,2,0.7,3.3,0.6
				c0.6,0.5,1.4,0,2.2,0.2c0.2,0.2,0.6-0.2,0.8,0.2c0.7-0.3,1.1,0.6,1.9,0.2c0.6,0.9,2.1-0.3,1.9,1.2c-0.2,0.3-0.7,0.5-0.9,0.1
				c-0.8,0.5-1.6-0.7-2.4-0.2c-0.5-0.5-1.3,0.3-1.6-0.5c-0.3,0.3-0.4-0.1-0.7,0.1c-0.7,0-1.7,0.1-2.5-0.2c-1.1-0.3-2.3-1.3-3.6-0.4
				c-0.7-0.1-1.8-0.6-2.3,0.1c0.2,0.4,0.6,0,1,0.4c1.1-0.2,2.3,0.5,3.3,1.1c1.1,0.3,2.7,0.2,3.9,0.3c0.6-0.1,0.6,0.6,1.1,0.9
				c0.1,0.2-0.2,0.3-0.3,0.5c-1.5-0.5-3.2-0.4-4.7-0.5c-0.4,0-0.8-0.2-1.1,0.2c0.2,0.4,0.3,0.9,0.7,1.1c0.2-0.2,0.5-0.5,0.9-0.2
				c0,0.3,0.2,0.6,0,0.8c-0.2,0.2-0.5,0.3-0.7,0l-0.3-0.6c-0.4,1.1-1.4,0.5-2.2,0.6c-0.4-0.2-0.2-0.7-0.3-1.1l0.7-0.6
				c-1-0.4-1.9-0.2-2.8-0.2c0.4,0.6,2-0.1,1.3,1.2c-0.6,0.3-1.7-0.1-2.3,0.3c-0.4,0-0.5-0.2-0.5-0.5c0-0.3,0.5-0.6,0.5-0.9
				c0.3,0,0.6,0.2,0.8-0.1c-0.9-0.6-2-0.7-3-0.7c-0.2,0.1-0.5,0.2-0.6,0.5c0.2,0.5,1.3,0.1,1.6,0.9c-1.1,1-2.8,0.4-4.1,0.4
				c-0.4-0.2-1.1,0.8-1.4,0c-0.3-0.3,0-0.6,0.1-0.8c0.2-0.3,0.5,0,0.8,0l0.2,0.4c0.1-0.3,0.5-0.5,0.5-0.9c0-0.1-0.1-0.4-0.3-0.3
				c-0.9,0.6-1.5-0.2-2.4-0.2c-0.9,0.1-2.2-0.2-2.9,0.5c0.2,0.6,0.9,0,1.4,0c0.5,0.3,1.6-0.4,1.6,0.7c-0.4,0.4-0.9,0.4-1.4,0.4
				c-0.7,0-1.3,0.6-2.1,0.4c0.8,1.1,2.6,0.1,3.8,0.7c1-0.1,1.7,0.1,2.3,0.9c0.5-0.2,0.6-0.8,1.1-0.9c0.8-0.3,1.2,1.5,2.2,0.6
				c0.9-0.1,2-0.4,2.8,0.3c0,0.2-0.1,0.4-0.3,0.4c-1,0.3-1.9-0.6-2.7,0.2c-0.7,0.4-1.5-0.2-2.2,0c-0.5,0.3-0.9-0.6-1.3,0
				c-1.7,0.2-3.3,0.2-5-0.2c-0.6,0.1-1,1.1-1.7,0.7l-1.1-0.6c-0.9,0.4-2.2-0.1-3,0.6l-1.3-0.3c-2.2-0.1-4.2,0.1-6.1,0
				c-1.3-0.1-2.8,0.4-4.2,0.3c-1.8,0-3.3,1-5.1,0.9c-1.1,0.7-2.7,0.9-3.8,0.2c-1.1,0.2-2.2,1.8-3.3,0.5c-0.4-0.2-0.7-0.1-1.1,0
				c-1.4,0.6-2.7,1.2-4.2,1.6c-1.6,1.1-3.2-0.9-4.8-0.4c-0.3-0.1-0.6-0.3-0.9,0c0.3,0.1,0.7,0.5,0.4,0.9c-1,0.8-2.2,0.6-3.2,0.9
				c-1.4,0.4-3.2,0-3.9,1.7c-1.6,0.5-3.8,1.5-5-0.1c-0.4-0.3-0.9-0.6-0.9-1.2c-0.4,1.1-1.6,1.7-2.3,2.6c-1.2,0.3-2.5-0.3-3.5,0.7
				c-0.6-0.1-1.4,0.1-1.9,0.7c-1.5,0.5-3.2,1.4-4.9,1c-0.4,0-0.5,0.4-0.9,0.6c-2,0.9-3.9,1.7-6.2,1.9c-0.7,0.4-1.2,1-2,1
				c-0.5-0.3-0.4-0.8-0.6-1.2c0.1-0.5,0.1-1.1,0.6-1.5c-0.6,0.1-1.4,0.1-2,0.5c0.7,0.3,0.7,1.1,0.8,1.8c-0.1,1.7-1.7,0.2-2.7,0.5
				c-0.3,0.3-0.1,0.8-0.6,1c-1.3-0.3-2.3,1.2-3.6,0.7c-0.3-0.4-0.6-0.8-1-1.1c0,0.8-0.2,1.9-1,2.2c-0.7,0.4-1.7,0-2.1,0.8
				c-1.1-0.5-1.6,0.9-2.5,0.9c-1.3,0.7-2.5,1.7-4,1.9c-0.6,0.4-1.1,0.8-1.7,0.8c-1-1.1-3.2,0.5-3.3-1.7c0.1-0.2,0-0.5-0.1-0.7
				c-1.2,0.6-2.3,0.7-3.7,0.6c-0.8-0.6-1.4,0.7-2.2,0.3c-0.1-0.2-0.5-0.5-0.3-0.8c0.2-0.9,2,0.2,1.4-1c-0.8-0.2-1.9,0.5-2.3-0.6
				c-1.1-1.4-0.9-3.7-2.6-4.5c-0.3-0.6,0.2-1.1,0.4-1.7c0.9-0.1,1.4-0.9,2-1.3c0.5,0,0.8-0.4,1.2-0.4c0.5-0.4,1-1.1,1.7-0.9
				c0.2-0.4,0.8-0.1,1.1-0.3c0.9-0.2,1.7-0.9,2.4-1.3c0.6-0.4,1.4,0,1.7-0.8c0.2-0.3,0.6-0.7,1.1-0.8c1.1,0.3,2.1-0.4,3.1-0.7
				c0.3,0.1,0.8-0.1,1.1-0.4c0.8-0.5,1.4-1.2,2.3-1.1c1-0.1,1.8,1.1,2.7-0.1l1-1.1c0.7-0.2,1.6-0.3,2.2-0.2c0.6-0.1,1.2-0.6,1.9-0.4
				c0.7-0.4,1.5-1.3,2.4-1.2l1.2,1.1c0.8,0,1.5,0,1.9,0.8c0.1-0.1,0.4,0,0.5-0.1c-0.2-0.5-1-0.8-0.7-1.4c0.2-0.4,0.4-0.9,0.8-1.1
				c0.6-0.1,1.1,0.2,1.5,0.4c0.9-0.5,2-0.6,2.6-1.6c0.5,0.2,0.6-0.5,1-0.1c1.1,0.2,1.8-1.3,2.9-0.9c0.5,0,1.2,0.2,1.7-0.3
				c1.9-0.3,3.7,0.1,5.8,0c0.3-0.3,0.6-0.1,1-0.3c0.7-0.6,1.5-1.1,2.4-0.9c1.1-0.4,2.3-1.9,3.5-0.9c0.9-0.1,1.7-0.6,2.6-0.6
				c1.3-0.3,2.4-0.1,3.8-0.1c0.6-0.2,0.8-0.9,1.5-0.6c0.3,0.3,0.7,0.9,1.2,0.4c0.8-0.5,1.7-1.7,2.8-1.1c0.7,0.1,1.6-0.5,2.2,0
				c1,0.1,1.8-1.1,2.8-1c0.9-0.3,2.1,0.2,3-0.4c0.4-0.4,0.7,0.2,1.2,0.1c1.2-0.9,2.4,0.1,3.7-0.2c0.6,0.1,0.8,1.1,1.6,0.5
				c0.8-0.4,1.7-0.5,2.3-0.9c0.8,0.1,1.9,0.8,2.8,0c0.5-0.1,1,0,1.5,0c0.5,0.6,1-0.1,1.5-0.2c0.7,0.1,1.2-0.3,1.8-0.3
				c0.4-0.4,0.6-0.1,1-0.5C92.8,32.1,93.7,32.8,95,32.5z"/>
		</g>
		<g>
			<g>
				<path class="st6" d="M74,79.7v-5.2h1.5v-0.8H74v-0.3c0-0.9,0.2-1.8,1.2-1.8c0.3,0,0.5,0.1,0.7,0.1l0.2-0.9
					c-0.2-0.1-0.6-0.2-0.9-0.2c-0.5,0-1.1,0.2-1.5,0.6c-0.5,0.5-0.7,1.3-0.7,2.1v0.3h-0.9v0.8h0.9v5.2H74z"/>
				<path class="st6" d="M78.9,73.5c-1.7,0-3,1.2-3,3.2c0,1.9,1.3,3.1,2.9,3.1c1.5,0,3-1,3-3.2C81.8,74.8,80.6,73.5,78.9,73.5z
					 M78.9,74.3c1.3,0,1.8,1.3,1.8,2.3c0,1.4-0.8,2.4-1.8,2.4c-1.1,0-1.8-1-1.8-2.3C77,75.5,77.6,74.3,78.9,74.3z"/>
				<path class="st6" d="M83.2,79.7h1.1v-3.2c0-0.2,0-0.4,0-0.5c0.2-0.8,0.7-1.4,1.5-1.4c0.2,0,0.3,0,0.4,0v-1c-0.1,0-0.2,0-0.3,0
					c-0.7,0-1.4,0.5-1.7,1.3h0l0-1.2h-1c0,0.6,0.1,1.2,0.1,1.9V79.7z"/>
				<path class="st6" d="M90.2,72.5v1.1h-0.9v0.8h0.9v3.3c0,0.7,0.1,1.3,0.4,1.6c0.3,0.3,0.7,0.5,1.2,0.5c0.4,0,0.8-0.1,1-0.2
					l-0.1-0.8c-0.2,0-0.3,0.1-0.6,0.1c-0.6,0-0.8-0.4-0.8-1.2v-3.3h1.6v-0.8h-1.6v-1.5L90.2,72.5z"/>
				<path class="st6" d="M94.1,79.7h1.1V76c0-0.2,0-0.4,0.1-0.5c0.2-0.6,0.8-1.1,1.5-1.1c1,0,1.4,0.8,1.4,1.8v3.5h1.1v-3.6
					c0-2.1-1.3-2.6-2.1-2.6c-0.4,0-0.8,0.1-1.1,0.3c-0.3,0.2-0.6,0.5-0.8,0.8h0v-3.8h-1.1V79.7z"/>
				<path class="st6" d="M106,76.9c0-0.1,0-0.3,0-0.5c0-1.1-0.5-2.9-2.5-2.9c-1.8,0-2.8,1.4-2.8,3.3c0,1.8,1.1,3.1,3,3.1
					c1,0,1.6-0.2,2-0.4l-0.2-0.8c-0.4,0.2-0.9,0.3-1.7,0.3c-1.1,0-2.1-0.6-2.1-2.1H106z M101.7,76.1c0.1-0.8,0.6-1.8,1.7-1.8
					c1.2,0,1.5,1.1,1.5,1.8H101.7z"/>
				<path class="st6" d="M109.3,73.6l1.8,6.1h1l1-2.9c0.2-0.7,0.4-1.3,0.6-2h0c0.2,0.7,0.3,1.3,0.5,2l0.9,2.9h1l2-6.1h-1.1l-0.9,3
					c-0.2,0.7-0.4,1.4-0.5,2h0c-0.1-0.6-0.3-1.3-0.5-2l-0.9-3h-0.9l-1,3.1c-0.2,0.7-0.4,1.3-0.5,1.9h0c-0.1-0.6-0.3-1.3-0.5-1.9
					l-0.8-3.1H109.3z"/>
				<path class="st6" d="M121.7,73.5c-1.7,0-3,1.2-3,3.2c0,1.9,1.3,3.1,2.9,3.1c1.5,0,3-1,3-3.2C124.6,74.8,123.4,73.5,121.7,73.5z
					 M121.7,74.3c1.3,0,1.8,1.3,1.8,2.3c0,1.4-0.8,2.4-1.8,2.4c-1.1,0-1.8-1-1.8-2.3C119.8,75.5,120.4,74.3,121.7,74.3z"/>
				<path class="st6" d="M126,79.7h1.1v-3.2c0-0.2,0-0.4,0.1-0.5c0.2-0.8,0.7-1.4,1.5-1.4c0.2,0,0.3,0,0.4,0v-1c-0.1,0-0.2,0-0.3,0
					c-0.7,0-1.4,0.5-1.7,1.3H127l0-1.2h-1c0,0.6,0.1,1.2,0.1,1.9V79.7z"/>
				<rect x="130.2" y="70.8" class="st6" width="1.1" height="8.9"/>
				<path class="st6" d="M137.3,70.8v3.6h0c-0.3-0.5-0.9-0.9-1.8-0.9c-1.5,0-2.7,1.2-2.7,3.3c0,1.8,1.1,3.1,2.6,3.1
					c1,0,1.7-0.5,2.1-1.2h0l0.1,1.1h1c0-0.4-0.1-1-0.1-1.6v-7.3H137.3z M137.3,77.1c0,0.2,0,0.3-0.1,0.5c-0.2,0.8-0.9,1.3-1.6,1.3
					c-1.2,0-1.8-1-1.8-2.2c0-1.3,0.7-2.3,1.8-2.3c0.8,0,1.4,0.6,1.6,1.3c0,0.1,0.1,0.3,0.1,0.5V77.1z"/>
			</g>
			<g>
				<path class="st6" d="M86.4,64.5l0.9,2.7h1.2l-2.9-8.5h-1.3l-2.9,8.5h1.1l0.9-2.7H86.4z M83.7,63.6l0.8-2.4
					c0.2-0.5,0.3-1,0.4-1.5h0c0.1,0.5,0.3,1,0.4,1.5l0.8,2.4H83.7z"/>
				<rect x="89.7" y="58.2" class="st6" width="1.1" height="8.9"/>
				<path class="st6" d="M97.7,61.1h-1.1v3.7c0,0.2,0,0.4-0.1,0.6c-0.2,0.5-0.7,1-1.5,1c-1,0-1.4-0.8-1.4-1.9v-3.4h-1.1v3.5
					c0,2.1,1.1,2.7,2.1,2.7c1.1,0,1.7-0.6,2-1.1h0l0.1,1h1c0-0.5-0.1-1-0.1-1.7V61.1z"/>
				<path class="st6" d="M99.5,67.2h1.1v-3.7c0-0.2,0-0.4,0.1-0.5c0.2-0.6,0.7-1.1,1.4-1.1c0.8,0,1.3,0.7,1.3,1.7v3.6h1.1v-3.8
					c0-0.2,0-0.4,0.1-0.6c0.2-0.5,0.7-1,1.3-1c0.9,0,1.3,0.7,1.3,1.9v3.4h1.1v-3.6c0-2.1-1.2-2.6-2-2.6c-0.6,0-1,0.2-1.3,0.4
					c-0.3,0.2-0.5,0.5-0.7,0.8h0c-0.3-0.7-0.9-1.2-1.7-1.2c-1,0-1.6,0.5-1.9,1.1h0l0-1h-1c0,0.5,0.1,1,0.1,1.6V67.2z"/>
				<path class="st6" d="M111.1,67.2v-6.1H110v6.1H111.1z M110.6,58.7c-0.4,0-0.7,0.3-0.7,0.7c0,0.4,0.3,0.7,0.7,0.7
					c0.4,0,0.7-0.3,0.7-0.7C111.2,59,111,58.7,110.6,58.7z"/>
				<path class="st6" d="M112.9,67.2h1.1v-3.7c0-0.2,0-0.4,0.1-0.5c0.2-0.6,0.8-1.1,1.5-1.1c1,0,1.4,0.8,1.4,1.8v3.5h1.1v-3.6
					c0-2.1-1.3-2.6-2.1-2.6c-1,0-1.7,0.6-2,1.1h0l-0.1-1h-1c0,0.5,0,1,0,1.6V67.2z"/>
				<path class="st6" d="M121,67.2v-6.1h-1.1v6.1H121z M120.4,58.7c-0.4,0-0.7,0.3-0.7,0.7c0,0.4,0.3,0.7,0.7,0.7
					c0.4,0,0.7-0.3,0.7-0.7C121.1,59,120.9,58.7,120.4,58.7z"/>
				<path class="st6" d="M127.9,61.1h-1.1v3.7c0,0.2,0,0.4-0.1,0.6c-0.2,0.5-0.7,1-1.5,1c-1,0-1.4-0.8-1.4-1.9v-3.4h-1.1v3.5
					c0,2.1,1.1,2.7,2.1,2.7c1.1,0,1.7-0.6,2-1.1h0l0.1,1h1c0-0.5,0-1,0-1.7V61.1z"/>
				<path class="st6" d="M129.7,67.2h1.1v-3.7c0-0.2,0-0.4,0.1-0.5c0.2-0.6,0.7-1.1,1.4-1.1c0.8,0,1.3,0.7,1.3,1.7v3.6h1.1v-3.8
					c0-0.2,0-0.4,0.1-0.6c0.2-0.5,0.7-1,1.3-1c0.9,0,1.3,0.7,1.3,1.9v3.4h1.1v-3.6c0-2.1-1.2-2.6-2-2.6c-0.6,0-1,0.2-1.3,0.4
					c-0.3,0.2-0.5,0.5-0.7,0.8h0c-0.3-0.7-0.9-1.2-1.7-1.2c-1,0-1.6,0.5-1.9,1.1h0l-0.1-1h-1c0,0.5,0,1,0,1.6V67.2z"/>
			</g>
		</g>
	</g>
</g>
</svg>
