<?xml version="1.0" encoding="UTF-8"?> <svg xmlns="http://www.w3.org/2000/svg" id="Layer_1" data-name="Layer 1" viewBox="0 0 830 251"><defs><style> .cls-1 { fill: #d50037; } .cls-2 { fill: #202945; } </style></defs><g><path class="cls-2" d="M539.6,236.18c-4.99,0-9.02-1.9-12.11-5.7v5.06h-8.19v-49.87h8.19v17.24c2.99-3.8,7.03-5.72,12.11-5.77,5.27-.05,9.73,1.82,13.36,5.59,3.63,3.78,5.45,8.42,5.45,13.93s-1.78,9.96-5.34,13.79c-3.56,3.82-8.05,5.73-13.47,5.73ZM530.44,225.14c2.35,2.38,5.17,3.56,8.44,3.56s6.08-1.19,8.41-3.56c2.33-2.37,3.49-5.2,3.49-8.48s-1.17-6.17-3.49-8.55c-2.33-2.38-5.13-3.56-8.41-3.56s-6.09,1.2-8.44,3.6c-2.35,2.4-3.53,5.24-3.53,8.51s1.17,6.1,3.53,8.48Z"></path><path class="cls-2" d="M568.74,250.5l6.13-15.18-15.74-37.55h8.62l11.18,28.36,10.62-28.36h8.62l-21.02,52.72h-8.41Z"></path><path class="cls-2" d="M622.82,235.54v-49.87h22.44c4.66,0,8.36,1.23,11.12,3.67,2.75,2.45,4.13,5.57,4.13,9.37,0,2.47-.61,4.7-1.82,6.7-1.21,2-2.84,3.54-4.88,4.63,2.85,1.04,5.01,2.62,6.48,4.74,1.47,2.11,2.21,4.55,2.21,7.3,0,3.99-1.42,7.23-4.27,9.72-2.85,2.49-6.72,3.74-11.61,3.74h-23.8ZM631.01,207.04h13.82c2.28,0,4.12-.67,5.52-2,1.4-1.33,2.1-2.99,2.1-4.99s-.68-3.62-2.03-4.88c-1.35-1.26-3.15-1.89-5.38-1.89h-14.04v13.75ZM631.01,227.84h15.1c2.33,0,4.2-.64,5.63-1.92,1.43-1.28,2.14-2.97,2.14-5.06s-.73-3.88-2.21-5.09-3.4-1.82-5.77-1.82h-14.89v13.89Z"></path><path class="cls-2" d="M686.22,236.11c-5.41,0-10-1.91-13.75-5.73-3.75-3.82-5.63-8.42-5.63-13.79s1.9-10.01,5.7-13.78c3.8-3.78,8.36-5.66,13.68-5.66,4.7,0,8.85,1.53,12.43,4.59,3.59,3.06,5.78,6.9,6.59,11.51.47,2.23.5,4.37.07,6.41h-30.35c.47,2.8,1.76,5.02,3.85,6.66,2.09,1.64,4.56,2.46,7.41,2.46,4.37,0,7.86-1.54,10.47-4.63l7.27,1.92c-1.52,3.04-3.94,5.47-7.27,7.3-3.33,1.83-6.82,2.74-10.47,2.74ZM674.97,213.31h22.3c-.47-2.52-1.72-4.63-3.74-6.34-2.02-1.71-4.48-2.57-7.37-2.57s-5.37.87-7.41,2.6c-2.04,1.73-3.3,3.84-3.78,6.31Z"></path><path class="cls-2" d="M715.79,250.5l6.13-15.18-15.74-37.55h8.62l11.18,28.36,10.62-28.36h8.62l-21.02,52.72h-8.41Z"></path><path class="cls-2" d="M765.02,236.11c-5.37,0-9.94-1.92-13.71-5.77-3.78-3.85-5.66-8.43-5.66-13.75s1.89-9.95,5.66-13.75c3.78-3.8,8.35-5.7,13.71-5.7s9.94,1.91,13.71,5.73c3.78,3.82,5.66,8.4,5.66,13.71s-1.9,9.96-5.7,13.79c-3.8,3.82-8.36,5.73-13.68,5.73ZM756.69,225.03c2.28,2.35,5.06,3.53,8.34,3.53s6.06-1.17,8.34-3.53c2.28-2.35,3.42-5.17,3.42-8.44s-1.14-6.09-3.42-8.44c-2.28-2.35-5.06-3.53-8.34-3.53s-6.06,1.17-8.34,3.53c-2.28,2.35-3.42,5.17-3.42,8.44s1.14,6.09,3.42,8.44Z"></path><path class="cls-2" d="M790.03,235.54v-37.76h8.19v4.99c2.9-3.75,6.82-5.63,11.76-5.63,4.32,0,8.04,1.39,11.15,4.17,3.11,2.78,4.67,6.47,4.67,11.08v23.16h-8.19v-20.95c0-3.04-.89-5.44-2.67-7.2s-3.95-2.64-6.52-2.64c-2.99,0-5.44,1.08-7.34,3.24-1.9,2.16-2.85,4.86-2.85,8.09v19.45h-8.19Z"></path></g><g><path class="cls-2" d="M231.84,151.01V34.74h53.98c10.96,0,19.77,2.96,26.41,8.89,6.65,5.93,9.97,13.32,9.97,22.18,0,5.32-1.25,10.27-3.74,14.87-2.49,4.59-5.84,8.28-10.05,11.04,6.31,2.77,11.02,6.67,14.12,11.71,3.1,5.04,4.65,10.49,4.65,16.36,0,8.97-3.35,16.42-10.05,22.34-6.7,5.92-15.75,8.89-27.16,8.89h-58.13ZM255.92,83.08h29.07c3.99,0,7.23-1.27,9.72-3.82,2.49-2.54,3.74-5.59,3.74-9.13s-1.25-6.59-3.74-9.14c-2.49-2.54-5.73-3.82-9.72-3.82h-29.07v25.91ZM255.92,128.59h32.39c3.99,0,7.23-1.21,9.72-3.65,2.49-2.44,3.74-5.42,3.74-8.97s-1.25-6.56-3.74-9.05c-2.49-2.49-5.73-3.74-9.72-3.74h-32.39v25.41Z"></path><path class="cls-2" d="M370.53,152.34c-3.54,0-7.06-.39-10.55-1.17s-7.06-2.13-10.71-4.07c-3.65-1.94-6.59-4.87-8.8-8.8-2.22-3.93-3.32-8.61-3.32-14.04,0-9.41,3.13-16.28,9.39-20.59,6.25-4.32,14.7-6.48,25.33-6.48h25.08v-4.15c0-7.42-5.7-11.13-17.11-11.13-9.75,0-15.67,3.05-17.77,9.13l-22.93.33c0-8.86,3.88-16.05,11.63-21.59,7.75-5.54,17.27-8.3,28.57-8.3s20.43,2.68,28.4,8.06c7.97,5.37,11.96,12.27,11.96,20.68v60.79h-22.76v-8.47c-2.32,2.66-5.84,4.96-10.55,6.89-4.71,1.94-9.99,2.91-15.86,2.91ZM372.52,132.74c5.98,0,11.54-1.83,16.69-5.48,5.15-3.66,7.72-8.03,7.72-13.12h-20.6c-5.09,0-9,.97-11.71,2.91-2.72,1.94-3.85,4.57-3.4,7.89.66,5.21,4.43,7.81,11.3,7.81Z"></path><path class="cls-2" d="M494.11,150.18c-14.17,4.09-26.13,3.6-35.88-1.49-9.75-5.1-14.62-14.12-14.62-27.08l.17-37.87h-14.95v-20.76h14.95l.16-19.43h23.75l-.17,19.43h25.41v20.76h-25.41l-.16,37.7c0,2.33.97,4.27,2.9,5.82,1.94,1.55,4.87,2.46,8.8,2.74,3.93.28,8.94-.75,15.03-3.07v23.25Z"></path><path class="cls-2" d="M548.49,152.34c-12.62,0-23.34-4.46-32.14-13.37-8.8-8.91-13.21-19.57-13.21-31.97s4.46-23.5,13.37-32.31c8.91-8.8,19.57-13.2,31.97-13.2,10.74,0,20.27,3.43,28.57,10.3,8.3,6.87,13.56,15.5,15.78,25.91,1.44,6.31,1.49,12.4.16,18.27h-66.11c1.33,4.87,3.93,8.61,7.8,11.21,3.88,2.6,8.47,3.9,13.79,3.9,8.41,0,15.33-2.49,20.76-7.47l20.93,5.98c-3.44,6.87-9.14,12.37-17.11,16.53-7.98,4.15-16.17,6.23-24.58,6.23ZM526.9,97.69h42.69c-1.33-4.21-3.88-7.75-7.64-10.63-3.77-2.88-8.31-4.32-13.62-4.32s-9.89,1.44-13.7,4.32c-3.82,2.88-6.4,6.43-7.72,10.63Z"></path><path class="cls-2" d="M606.46,151.01V34.74h24.09v116.27h-24.09Z"></path><path class="cls-2" d="M688.35,152.34c-12.62,0-23.34-4.46-32.14-13.37-8.8-8.91-13.21-19.57-13.21-31.97s4.46-23.5,13.37-32.31c8.91-8.8,19.57-13.2,31.97-13.2,9.41,0,17.88,2.66,25.41,7.97,7.53,5.32,12.96,12.29,16.28,20.93l-21.93,6.31c-1.77-4.09-4.4-7.39-7.89-9.88-3.49-2.49-7.45-3.74-11.88-3.74-6.43,0-11.85,2.38-16.28,7.14-4.43,4.76-6.64,10.35-6.64,16.78s2.22,11.99,6.64,16.69c4.43,4.71,9.85,7.06,16.28,7.06,4.54,0,8.52-1.25,11.96-3.74,3.43-2.49,6.04-5.73,7.81-9.71l21.93,6.31c-3.32,8.53-8.72,15.45-16.2,20.76-7.47,5.32-15.98,7.98-25.5,7.98Z"></path><path class="cls-2" d="M783.19,152.34c-12.41,0-23.07-4.49-31.97-13.46-8.92-8.97-13.37-19.65-13.37-32.06s4.43-23.06,13.29-31.97c8.86-8.91,19.54-13.37,32.06-13.37s23.06,4.46,31.97,13.37c8.91,8.91,13.37,19.57,13.37,31.97s-4.43,23.23-13.29,32.14c-8.86,8.91-19.54,13.37-32.06,13.37ZM766.91,123.44c4.43,4.65,9.85,6.97,16.28,6.97s11.85-2.32,16.28-6.97c4.43-4.65,6.65-10.19,6.65-16.61s-2.22-11.93-6.65-16.53c-4.43-4.59-9.86-6.89-16.28-6.89s-11.85,2.3-16.28,6.89c-4.43,4.59-6.64,10.11-6.64,16.53s2.21,11.96,6.64,16.61Z"></path></g><g><path class="cls-1" d="M186.21,139.06c0,25.51-20.68,46.19-46.19,46.19s-46.19-20.68-46.19-46.19,20.68-46.19,46.19-46.19,46.19,20.68,46.19,46.19"></path><path class="cls-1" d="M186.21,46.69c0,25.51-20.68,46.19-46.19,46.19s-46.19-20.68-46.19-46.19S114.52.5,140.03.5s46.19,20.68,46.19,46.19"></path><path class="cls-1" d="M93.84,46.69C93.84,21.18,73.16.5,47.65.5S1.46,21.18,1.46,46.69v92.38c0,25.51,20.68,46.19,46.19,46.19s46.19-20.68,46.19-46.19V46.69Z"></path></g></svg> 